<svg xmlns="http://www.w3.org/2000/svg" viewBox="0 0 50 50" width="50px" height="50px">
  <path d="M 18 3 C 16.35503 3 15 4.3550302 15 6 L 15 33 C 15 34.64497 16.35503 36 18 36 L 32 36 C 33.64497 36 35 34.64497 35 33 L 35 6 C 35 4.3550302 33.64497 3 32 3 L 18 3 z M 18 5 L 32 5 C 32.56503 5 33 5.4349698 33 6 L 33 24 L 17 24 L 17 6 C 17 5.4349698 17.43497 5 18 5 z M 11.984375 17.986328 A 1.0001 1.0001 0 0 0 11 19 L 11 34 C 11 37.301625 13.698375 40 17 40 L 22 40 L 22 46 L 17 46 A 1.0001 1.0001 0 1 0 17 48 L 22.832031 48 A 1.0001 1.0001 0 0 0 23.158203 48 L 26.832031 48 A 1.0001 1.0001 0 0 0 27.158203 48 L 33 48 A 1.0001 1.0001 0 1 0 33 46 L 28 46 L 28 40 L 33 40 C 36.301625 40 39 37.301625 39 34 L 39 19 A 1.0001 1.0001 0 1 0 37 19 L 37 34 C 37 36.220375 35.220375 38 33 38 L 27.167969 38 A 1.0001 1.0001 0 0 0 26.841797 38 L 23.154297 38 A 1.0001 1.0001 0 0 0 22.984375 37.986328 A 1.0001 1.0001 0 0 0 22.839844 38 L 17 38 C 14.779625 38 13 36.220375 13 34 L 13 19 A 1.0001 1.0001 0 0 0 11.984375 17.986328 z M 17 26 L 33 26 L 33 33 C 33 33.56503 32.56503 34 32 34 L 18 34 C 17.43497 34 17 33.56503 17 33 L 17 26 z M 25 28 A 2 2 0 0 0 25 32 A 2 2 0 0 0 25 28 z M 24 40 L 26 40 L 26 46 L 24 46 L 24 40 z" fill="#000000" />
</svg>